<?xml version="1.0" encoding="iso-8859-1"?>
<!-- Uploaded to: SVG Repo, www.svgrepo.com, Generator: SVG Repo Mixer Tools -->
<svg height="800px" width="800px" version="1.1" id="Capa_1" xmlns="http://www.w3.org/2000/svg" xmlns:xlink="http://www.w3.org/1999/xlink" 
	 viewBox="0 0 473.858 473.858" xml:space="preserve">
<g>
	<path style="fill:#FD830C;" d="M262.421,252.645c-0.016-0.016-90.996-90.996-90.996-90.996c-5.383-5.383-12.54-8.348-20.152-8.348
		c-7.613,0-14.77,2.965-20.153,8.348l-5.155,5.155L228.251,269.09c2.929,2.929,2.929,7.678,0,10.606
		c-1.464,1.464-3.384,2.197-5.303,2.197s-3.839-0.732-5.303-2.197L115.359,177.41l-67.185,67.185
		c-11.112,11.112-11.112,29.193,0,40.305l5.762,5.758c2.93,2.928,2.932,7.676,0.004,10.606c-1.414,1.415-3.253,2.14-5.107,2.189
		L36.81,403.594c-0.316,2.634,1.272,7.227,3.147,9.102l42.514,42.515c4.874,4.873,12.805,4.873,17.678,0l48.56-48.561
		l-10.607-10.607l-41.49,41.489c-1.464,1.464-3.384,2.197-5.303,2.197s-3.839-0.732-5.303-2.197l-31.496-31.496
		c-1.627-1.627-2.417-3.912-2.143-6.197l10.033-83.556c0.342-2.851,2.282-5.256,4.995-6.194c2.713-0.937,5.724-0.246,7.754,1.785
		l84.166,84.169l103.099-103.099C273.526,281.834,273.528,263.758,262.421,252.645z M162.498,371.653
		c-1.464,1.464-3.384,2.197-5.303,2.197c-1.919,0-3.839-0.732-5.303-2.197l-21.22-21.22c-2.929-2.929-2.929-7.678,0-10.606
		c2.929-2.929,7.678-2.93,10.606,0l21.22,21.22C165.427,363.975,165.427,368.724,162.498,371.653z M181.59,352.561
		c-1.464,1.464-3.384,2.197-5.303,2.197s-3.839-0.732-5.303-2.197l-21.22-21.22c-2.929-2.929-2.929-7.678,0-10.606
		c2.929-2.929,7.678-2.929,10.606,0l21.22,21.22C184.519,344.883,184.519,349.632,181.59,352.561z M200.682,333.469
		c-1.464,1.464-3.384,2.197-5.303,2.197s-3.839-0.732-5.303-2.197l-21.22-21.22c-2.929-2.929-2.929-7.678,0-10.606
		c2.929-2.929,7.678-2.929,10.606,0l21.22,21.22C203.611,325.791,203.611,330.54,200.682,333.469z"/>
	<path style="fill:#D4ED85;" d="M429.506,59.583c0-9.904-3.844-19.203-10.824-26.184c-6.981-6.981-16.28-10.825-26.186-10.825
		c-9.904,0-19.203,3.844-26.184,10.825L215.351,184.361l52.368,52.367L418.68,85.767C425.662,78.787,429.506,69.487,429.506,59.583z
		"/>
	<path style="fill:#4D3D36;" d="M446.011,63.711l-1.656-0.322c0.09-1.261,0.152-2.528,0.152-3.805c0-2.399-0.172-4.77-0.488-7.106
		l1.362-0.265c4.066-0.791,6.721-4.729,5.93-8.794c-0.791-4.065-4.729-6.72-8.795-5.929l-2.666,0.519
		c-1.61-3.537-3.625-6.893-6.018-10.015l1.904-1.904c2.929-2.929,2.929-7.678,0-10.606c-2.93-2.929-7.678-2.929-10.607,0
		l-2.024,2.024c-2.839-2.072-5.863-3.833-9.03-5.275l0.519-2.665c0.792-4.066-1.862-8.003-5.928-8.795
		c-4.071-0.792-8.004,1.864-8.795,5.929l-0.265,1.362c-2.336-0.316-4.708-0.488-7.107-0.488c-1.278,0-2.545,0.061-3.805,0.151
		l-0.323-1.657c-0.791-4.065-4.727-6.722-8.795-5.929c-4.066,0.792-6.721,4.729-5.93,8.795l0.39,2.002
		c-3.41,1.289-6.676,2.938-9.753,4.93l-0.676-1.018c-2.292-3.451-6.946-4.391-10.397-2.099c-3.45,2.291-4.39,6.946-2.099,10.396
		l1.693,2.55l-7.283,7.283l-1.554-1.554c-2.93-2.929-7.678-2.929-10.607,0c-2.929,2.929-2.929,7.678,0,10.606l1.554,1.554
		l-6.99,6.99l-1.554-1.554c-2.929-2.928-7.678-2.929-10.606,0c-2.93,2.929-2.93,7.678-0.001,10.607l1.554,1.554l-6.99,6.99
		l-1.554-1.554c-2.93-2.929-7.678-2.929-10.607,0c-2.929,2.929-2.929,7.678,0,10.606l1.554,1.554l-6.99,6.99l-1.555-1.555
		c-2.928-2.929-7.677-2.928-10.606,0c-2.929,2.929-2.929,7.678,0.001,10.607l1.554,1.554l-6.99,6.99l-1.554-1.554
		c-2.93-2.929-7.678-2.929-10.607,0c-2.929,2.929-2.929,7.678,0,10.606l1.555,1.555l-6.99,6.99l-1.554-1.554
		c-2.929-2.928-7.678-2.929-10.606,0c-2.93,2.929-2.93,7.678-0.001,10.607l1.555,1.555l-6.99,6.99l-1.555-1.555
		c-2.93-2.929-7.677-2.928-10.607,0c-2.929,2.929-2.928,7.678,0,10.607l1.554,1.554l-6.99,6.99l-1.554-1.554
		c-2.929-2.929-7.678-2.928-10.607,0c-2.929,2.929-2.929,7.678,0,10.607l1.555,1.555l-6.99,6.99l-22.713-22.712
		c-8.216-8.216-19.14-12.741-30.759-12.741s-22.543,4.525-30.759,12.741l-5.155,5.155l-42.756-42.756
		c-2.929-2.929-7.678-2.929-10.606,0c-2.929,2.929-2.929,7.678,0,10.606l42.756,42.756l-67.185,67.185
		c-16.058,16.058-16.902,41.645-2.551,58.719L21.917,401.805c-0.86,7.158,2.336,16.4,7.434,21.498l42.514,42.514
		c5.361,5.361,12.403,8.042,19.445,8.042c7.042,0,14.084-2.681,19.446-8.042l162.267-162.266
		c15.151-15.152,16.755-38.786,4.836-55.748l7.456-7.456l1.555,1.555c1.465,1.464,3.384,2.197,5.304,2.197
		c1.919,0,3.839-0.732,5.303-2.196c2.93-2.929,2.93-7.678,0.001-10.607l-1.555-1.555l6.991-6.991l1.556,1.556
		c1.465,1.464,3.384,2.196,5.303,2.196s3.839-0.732,5.304-2.197c2.929-2.929,2.929-7.678-0.001-10.606l-1.555-1.555l6.99-6.99
		l1.555,1.555c1.465,1.464,3.384,2.197,5.304,2.197c1.919,0,3.839-0.732,5.303-2.196c2.93-2.929,2.93-7.678,0.001-10.607
		l-1.555-1.555l6.99-6.99l1.555,1.555c1.465,1.464,3.385,2.197,5.304,2.197s3.839-0.732,5.304-2.197
		c2.929-2.929,2.929-7.678,0-10.606l-1.555-1.555l6.99-6.99l1.555,1.555c1.465,1.464,3.384,2.197,5.304,2.197
		c1.919,0,3.839-0.732,5.303-2.196c2.93-2.929,2.93-7.678,0.001-10.607l-1.555-1.555l6.991-6.991l1.556,1.556
		c1.465,1.464,3.384,2.196,5.303,2.196s3.839-0.732,5.304-2.197c2.929-2.929,2.929-7.678-0.001-10.606l-1.555-1.555l6.99-6.99
		l1.555,1.555c1.465,1.464,3.384,2.197,5.304,2.197c1.919,0,3.839-0.732,5.303-2.196c2.93-2.929,2.93-7.678,0.001-10.607
		l-1.555-1.555l6.99-6.99l1.555,1.555c1.465,1.464,3.385,2.197,5.304,2.197s3.839-0.732,5.304-2.197
		c2.929-2.929,2.929-7.678,0-10.606l-1.555-1.555l7.283-7.283l2.551,1.694c1.275,0.847,2.717,1.253,4.142,1.253
		c2.429,0,4.811-1.178,6.255-3.352c2.291-3.451,1.352-8.105-2.1-10.397l-1.019-0.677c1.992-3.077,3.641-6.344,4.93-9.754l2.003,0.39
		c0.484,0.094,0.966,0.14,1.44,0.14c3.518,0,6.657-2.487,7.354-6.069C452.732,68.439,450.077,64.502,446.011,63.711z
		 M267.719,236.729l-52.368-52.367L366.313,33.399c6.98-6.98,16.279-10.825,26.184-10.825c9.905,0,19.204,3.844,26.186,10.825
		c6.98,6.98,10.824,16.279,10.824,26.184s-3.845,19.204-10.826,26.184L267.719,236.729z M159.316,396.043l-84.166-84.169
		c-2.03-2.031-5.042-2.722-7.754-1.785c-2.713,0.938-4.653,3.344-4.995,6.194l-10.033,83.556c-0.274,2.285,0.516,4.57,2.143,6.197
		l31.496,31.496c1.464,1.464,3.384,2.197,5.303,2.197s3.839-0.732,5.303-2.197l41.49-41.489l10.607,10.607l-48.56,48.561
		c-4.874,4.873-12.805,4.873-17.678,0l-42.514-42.515c-1.875-1.875-3.463-6.468-3.147-9.102l12.023-100.139
		c1.854-0.049,3.693-0.774,5.107-2.189c2.928-2.93,2.926-7.679-0.004-10.606l-5.762-5.758c-11.112-11.112-11.112-29.193,0-40.305
		l67.185-67.185l102.286,102.286c1.464,1.464,3.384,2.197,5.303,2.197s3.839-0.732,5.303-2.197c2.929-2.929,2.929-7.678,0-10.606
		L125.965,166.804l5.155-5.155c5.383-5.383,12.54-8.348,20.153-8.348c7.612,0,14.77,2.965,20.152,8.348l90.98,90.98
		c11.122,11.129,11.12,29.205,0.01,40.315L159.316,396.043z M127.497,385.436l-36.187,36.187l-23.614-23.615l7.758-64.617
		L127.497,385.436z"/>
	<path style="fill:#4D3D36;" d="M141.278,339.826c-2.929-2.93-7.678-2.929-10.606,0c-2.929,2.929-2.929,7.678,0,10.606l21.22,21.22
		c1.464,1.465,3.384,2.197,5.303,2.197c1.919,0,3.839-0.732,5.303-2.197c2.929-2.929,2.929-7.678,0-10.606L141.278,339.826z"/>
	<path style="fill:#4D3D36;" d="M160.37,320.734c-2.929-2.929-7.678-2.929-10.606,0c-2.929,2.929-2.929,7.678,0,10.606l21.22,21.22
		c1.464,1.464,3.384,2.197,5.303,2.197s3.839-0.732,5.303-2.197c2.929-2.929,2.929-7.678,0-10.606L160.37,320.734z"/>
	<path style="fill:#4D3D36;" d="M179.462,301.643c-2.929-2.929-7.678-2.929-10.606,0c-2.929,2.929-2.929,7.678,0,10.606l21.22,21.22
		c1.464,1.464,3.384,2.197,5.303,2.197s3.839-0.732,5.303-2.197c2.929-2.929,2.929-7.678,0-10.606L179.462,301.643z"/>
</g>
</svg>